# Blender v2.77 (sub 0) OBJ File: 'plate.blend'
# www.blender.org
mtllib border.mtl
o Plane_Plane.001
v -1.283417 0.052000 1.283417
v 1.283417 0.052000 1.283417
v -1.283417 0.052000 -1.283417
v 1.283417 0.052000 -1.283417
v -1.026858 0.052000 -1.026858
v -1.026858 0.052000 1.026858
v 1.026858 0.052000 1.026858
v 1.026858 0.052000 -1.026858
v -1.283417 -0.052000 1.283417
v 1.283417 -0.052000 1.283417
v -1.283417 -0.052000 -1.283417
v 1.283417 -0.052000 -1.283417
v -1.026858 -0.052000 -1.026858
v -1.026858 -0.052000 1.026858
v 1.026858 -0.052000 1.026858
v 1.026858 -0.052000 -1.026858
vn 0.0000 1.0000 0.0000
vn 0.0000 -1.0000 0.0000
vn 1.0000 0.0000 0.0000
vn 0.0000 0.0000 -1.0000
vn -1.0000 0.0000 0.0000
vn 0.0000 0.0000 1.0000
usemtl None
s off
f 5//1 1//1 6//1
f 6//1 2//1 7//1
f 7//1 4//1 8//1
f 8//1 3//1 5//1
f 11//2 14//2 9//2
f 9//2 15//2 10//2
f 10//2 16//2 12//2
f 12//2 13//2 11//2
f 6//3 13//3 5//3
f 7//4 14//4 6//4
f 8//5 15//5 7//5
f 5//6 16//6 8//6
f 3//5 9//5 1//5
f 1//6 10//6 2//6
f 2//3 12//3 4//3
f 4//4 11//4 3//4
f 5//1 3//1 1//1
f 6//1 1//1 2//1
f 7//1 2//1 4//1
f 8//1 4//1 3//1
f 11//2 13//2 14//2
f 9//2 14//2 15//2
f 10//2 15//2 16//2
f 12//2 16//2 13//2
f 6//3 14//3 13//3
f 7//4 15//4 14//4
f 8//5 16//5 15//5
f 5//6 13//6 16//6
f 3//5 11//5 9//5
f 1//6 9//6 10//6
f 2//3 10//3 12//3
f 4//4 12//4 11//4
