# Blender v2.77 (sub 0) OBJ File: 'plate.blend'
# www.blender.org
mtllib icon.mtl
o Circle
v 0.000000 -0.205209 -1.000000
v 0.000000 -0.294177 -0.909289
v -0.347970 -0.294177 -0.840073
v -0.382683 -0.205209 -0.923880
v -0.642964 -0.294177 -0.642964
v -0.707107 -0.205209 -0.707107
v -0.840073 -0.294177 -0.347970
v -0.923879 -0.205209 -0.382683
v -0.909289 -0.294177 0.000000
v -1.000000 -0.205209 0.000000
v -0.840073 -0.294177 0.347970
v -0.923879 -0.205209 0.382684
v -0.642964 -0.294177 0.642964
v -0.707107 -0.205209 0.707107
v -0.347970 -0.294177 0.840073
v -0.382683 -0.205209 0.923880
v -0.000000 -0.294177 0.909289
v -0.000000 -0.205209 1.000000
v 0.347970 -0.294177 0.840073
v 0.382683 -0.205209 0.923880
v 0.642964 -0.294177 0.642965
v 0.707107 -0.205209 0.707107
v 0.840073 -0.294177 0.347970
v 0.923880 -0.205209 0.382684
v 0.909289 -0.294177 0.000000
v 1.000000 -0.205209 -0.000000
v 0.840073 -0.294177 -0.347970
v 0.923880 -0.205209 -0.382684
v 0.642964 -0.294177 -0.642965
v 0.707107 -0.205209 -0.707107
v 0.347969 -0.294177 -0.840074
v 0.382683 -0.205209 -0.923880
v 0.000000 0.294177 -0.909289
v 0.000000 0.205209 -1.000000
v -0.382683 0.205209 -0.923880
v -0.347970 0.294177 -0.840073
v -0.707107 0.205209 -0.707107
v -0.642964 0.294177 -0.642964
v -0.923879 0.205209 -0.382683
v -0.840073 0.294177 -0.347970
v -1.000000 0.205209 0.000000
v -0.909289 0.294177 0.000000
v -0.923879 0.205209 0.382684
v -0.840073 0.294177 0.347970
v -0.707107 0.205209 0.707107
v -0.642964 0.294177 0.642964
v -0.382683 0.205209 0.923880
v -0.347970 0.294177 0.840073
v -0.000000 0.205209 1.000000
v -0.000000 0.294177 0.909289
v 0.382683 0.205209 0.923880
v 0.347970 0.294177 0.840073
v 0.707107 0.205209 0.707107
v 0.642964 0.294177 0.642965
v 0.923880 0.205209 0.382684
v 0.840073 0.294177 0.347970
v 1.000000 0.205209 -0.000000
v 0.909289 0.294177 0.000000
v 0.923880 0.205209 -0.382684
v 0.840073 0.294177 -0.347970
v 0.707107 0.205209 -0.707107
v 0.642964 0.294177 -0.642965
v 0.382683 0.205209 -0.923880
v 0.347969 0.294177 -0.840074
vt 0.0001 0.3724
vt 0.0686 0.1388
vt 0.0690 0.3631
vt 0.4395 0.3589
vt 0.4991 0.1404
vt 0.5009 0.3580
vt 0.9314 0.3596
vt 0.9999 0.1260
vt 0.9966 0.3802
vt 0.3782 0.3597
vt 0.4377 0.1412
vt 0.8694 0.3545
vt 0.9310 0.1353
vt 0.3168 0.3606
vt 0.3763 0.1421
vt 0.8079 0.3541
vt 0.8679 0.1358
vt 0.2554 0.3614
vt 0.3149 0.1429
vt 0.7741 0.4973
vt 0.8547 0.9024
vt 0.6869 0.9357
vt 0.1939 0.3621
vt 0.2535 0.1437
vt 0.4873 0.7601
vt 0.2245 0.9357
vt 0.0489 0.6729
vt 0.6237 0.3563
vt 0.6832 0.1378
vt 0.6851 0.3555
vt 0.1321 0.3626
vt 0.1921 0.1443
vt 0.5623 0.3572
vt 0.6218 0.1387
vt 0.1306 0.1439
vt 0.5605 0.1395
vt 0.7465 0.3547
vt 0.8061 0.1363
vt 0.6851 0.4271
vt 0.6238 0.4280
vt 0.5624 0.4288
vt 0.5010 0.4297
vt 0.4396 0.4306
vt 0.3782 0.4314
vt 0.3168 0.4323
vt 0.2554 0.4332
vt 0.1940 0.4341
vt 0.1323 0.4353
vt 0.0697 0.4384
vt 0.0046 0.4523
vt 0.9301 0.4305
vt 0.8692 0.4261
vt 0.8079 0.4257
vt 0.7465 0.4263
vt 0.7446 0.0652
vt 0.6832 0.0661
vt 0.6218 0.0670
vt 0.5604 0.0678
vt 0.4990 0.0687
vt 0.4376 0.0695
vt 0.3762 0.0704
vt 0.3149 0.0713
vt 0.2535 0.0721
vt 0.1921 0.0727
vt 0.1308 0.0723
vt 0.0699 0.0679
vt 0.0034 0.1182
vt 0.0088 0.0461
vt 0.9303 0.0600
vt 0.8677 0.0631
vt 0.8060 0.0643
vt 0.7446 0.1370
vt 0.6063 0.9024
vt 0.5447 0.8407
vt 0.5113 0.7601
vt 0.5113 0.6729
vt 0.5447 0.5924
vt 0.6063 0.5307
vt 0.6869 0.4973
vt 0.8547 0.5307
vt 0.9163 0.5924
vt 0.9497 0.6729
vt 0.9497 0.7601
vt 0.9163 0.8407
vt 0.7741 0.9357
vt 0.0822 0.5924
vt 0.1439 0.5307
vt 0.2245 0.4973
vt 0.3117 0.4973
vt 0.3922 0.5307
vt 0.4539 0.5924
vt 0.4873 0.6729
vt 0.4539 0.8407
vt 0.3922 0.9024
vt 0.3117 0.9357
vt 0.1439 0.9024
vt 0.0822 0.8407
vt 0.0489 0.7601
vt 0.9912 0.4523
vt 0.9954 0.0461
vn 0.9286 -0.3710 0.0000
vn 0.8579 0.3710 0.3554
vn 0.8579 -0.3710 0.3554
vn -0.8579 -0.3710 0.3554
vn -0.9286 0.3710 0.0000
vn -0.9286 -0.3710 0.0000
vn 0.8579 -0.3710 -0.3554
vn 0.9286 0.3710 0.0000
vn -0.6566 -0.3710 0.6566
vn -0.8579 0.3710 0.3554
vn 0.6566 -0.3710 -0.6566
vn 0.8579 0.3710 -0.3554
vn -0.3554 -0.3710 0.8579
vn -0.6566 0.3710 0.6566
vn 0.3554 -0.3710 -0.8579
vn 0.6566 0.3710 -0.6566
vn 0.0000 -0.3710 0.9286
vn -0.3554 0.3710 0.8579
vn 0.0000 0.9088 0.4172
vn 0.2950 0.9088 -0.2950
vn 0.0000 0.9088 -0.4172
vn 0.3554 -0.3710 0.8579
vn 0.0000 0.3710 0.9286
vn 0.2950 -0.9088 0.2950
vn -0.2950 -0.9088 0.2950
vn -0.2950 -0.9088 -0.2950
vn -0.6566 -0.3710 -0.6566
vn -0.3554 0.3710 -0.8579
vn -0.3554 -0.3710 -0.8579
vn 0.6566 -0.3710 0.6566
vn 0.3554 0.3710 0.8579
vn -0.8579 -0.3710 -0.3554
vn -0.6566 0.3710 -0.6566
vn 0.6566 0.3710 0.6566
vn -0.8579 0.3710 -0.3554
vn 0.0000 -0.3710 -0.9286
vn 0.3554 0.3710 -0.8579
vn -0.1596 -0.9088 -0.3854
vn -0.3854 -0.9088 -0.1596
vn -0.4172 -0.9088 0.0000
vn -0.3854 -0.9088 0.1596
vn -0.1596 -0.9088 0.3854
vn 0.0000 -0.9088 0.4172
vn 0.1596 -0.9088 0.3854
vn 0.3854 -0.9088 0.1596
vn 0.4172 -0.9088 0.0000
vn 0.3854 -0.9088 -0.1596
vn 0.2950 -0.9088 -0.2950
vn 0.1596 -0.9088 -0.3854
vn 0.0000 -0.9088 -0.4172
vn -0.1596 0.9088 -0.3854
vn -0.2950 0.9088 -0.2950
vn -0.3854 0.9088 -0.1596
vn -0.4172 0.9088 0.0000
vn -0.3854 0.9088 0.1596
vn -0.2950 0.9088 0.2950
vn -0.1596 0.9088 0.3854
vn 0.1596 0.9088 0.3854
vn 0.2950 0.9088 0.2950
vn 0.3854 0.9088 0.1596
vn 0.4172 0.9088 0.0000
vn 0.3854 0.9088 -0.1596
vn 0.1596 0.9088 -0.3854
vn 0.0000 0.3710 -0.9286
usemtl icon
s 1
f 26/1/1 55/2/2 24/3/3
f 12/4/4 41/5/5 10/6/6
f 28/7/7 57/8/8 26/9/1
f 14/10/9 43/11/10 12/4/4
f 30/12/11 59/13/12 28/7/7
f 16/14/13 45/15/14 14/10/9
f 32/16/15 61/17/16 30/12/11
f 18/18/17 47/19/18 16/14/13
f 50/20/19 62/21/20 33/22/21
f 20/23/22 49/24/23 18/18/17
f 21/25/24 13/26/25 5/27/26
f 6/28/27 35/29/28 4/30/29
f 22/31/30 51/32/31 20/23/22
f 8/33/32 37/34/33 6/28/27
f 24/3/3 53/35/34 22/31/30
f 10/6/6 39/36/35 8/33/32
f 1/37/36 63/38/37 32/16/15
f 1/37/36 3/39/38 4/30/29
f 6/28/27 3/39/38 5/40/26
f 6/28/27 7/41/39 8/33/32
f 8/33/32 9/42/40 10/6/6
f 10/6/6 11/43/41 12/4/4
f 14/10/9 11/43/41 13/44/25
f 16/14/13 13/44/25 15/45/42
f 16/14/13 17/46/43 18/18/17
f 20/23/22 17/46/43 19/47/44
f 22/31/30 19/47/44 21/48/24
f 24/3/3 21/48/24 23/49/45
f 26/1/1 23/49/45 25/50/46
f 26/9/1 27/51/47 28/7/7
f 28/7/7 29/52/48 30/12/11
f 32/16/15 29/52/48 31/53/49
f 32/16/15 2/54/50 1/37/36
f 33/55/21 35/29/28 36/56/51
f 38/57/52 35/29/28 37/34/33
f 38/57/52 39/36/35 40/58/53
f 40/58/53 41/5/5 42/59/54
f 42/59/54 43/11/10 44/60/55
f 46/61/56 43/11/10 45/15/14
f 48/62/57 45/15/14 47/19/18
f 48/62/57 49/24/23 50/63/19
f 50/63/19 51/32/31 52/64/58
f 52/64/58 53/35/34 54/65/59
f 54/65/59 55/2/2 56/66/60
f 56/66/60 57/67/8 58/68/61
f 60/69/62 57/8/8 59/13/12
f 60/69/62 61/17/16 62/70/20
f 62/70/20 63/38/37 64/71/63
f 33/55/21 63/38/37 34/72/64
f 4/30/29 34/72/64 1/37/36
f 26/1/1 57/67/8 55/2/2
f 12/4/4 43/11/10 41/5/5
f 28/7/7 59/13/12 57/8/8
f 14/10/9 45/15/14 43/11/10
f 30/12/11 61/17/16 59/13/12
f 16/14/13 47/19/18 45/15/14
f 32/16/15 63/38/37 61/17/16
f 18/18/17 49/24/23 47/19/18
f 33/22/21 36/73/51 38/74/52
f 38/74/52 40/75/53 42/76/54
f 42/76/54 44/77/55 46/78/56
f 46/78/56 48/79/57 50/20/19
f 50/20/19 52/80/58 54/81/59
f 54/81/59 56/82/60 50/20/19
f 58/83/61 60/84/62 62/21/20
f 62/21/20 64/85/63 33/22/21
f 33/22/21 38/74/52 50/20/19
f 42/76/54 46/78/56 50/20/19
f 50/20/19 56/82/60 58/83/61
f 58/83/61 62/21/20 50/20/19
f 38/74/52 42/76/54 50/20/19
f 20/23/22 51/32/31 49/24/23
f 5/27/26 3/86/38 2/87/50
f 2/87/50 31/88/49 29/89/48
f 29/89/48 27/90/47 25/91/46
f 25/91/46 23/92/45 21/25/24
f 21/25/24 19/93/44 17/94/43
f 17/94/43 15/95/42 13/26/25
f 13/26/25 11/96/41 5/27/26
f 9/97/40 7/98/39 5/27/26
f 5/27/26 2/87/50 29/89/48
f 29/89/48 25/91/46 21/25/24
f 21/25/24 17/94/43 13/26/25
f 11/96/41 9/97/40 5/27/26
f 5/27/26 29/89/48 21/25/24
f 6/28/27 37/34/33 35/29/28
f 22/31/30 53/35/34 51/32/31
f 8/33/32 39/36/35 37/34/33
f 24/3/3 55/2/2 53/35/34
f 10/6/6 41/5/5 39/36/35
f 1/37/36 34/72/64 63/38/37
f 1/37/36 2/54/50 3/39/38
f 6/28/27 4/30/29 3/39/38
f 6/28/27 5/40/26 7/41/39
f 8/33/32 7/41/39 9/42/40
f 10/6/6 9/42/40 11/43/41
f 14/10/9 12/4/4 11/43/41
f 16/14/13 14/10/9 13/44/25
f 16/14/13 15/45/42 17/46/43
f 20/23/22 18/18/17 17/46/43
f 22/31/30 20/23/22 19/47/44
f 24/3/3 22/31/30 21/48/24
f 26/1/1 24/3/3 23/49/45
f 26/9/1 25/99/46 27/51/47
f 28/7/7 27/51/47 29/52/48
f 32/16/15 30/12/11 29/52/48
f 32/16/15 31/53/49 2/54/50
f 33/55/21 34/72/64 35/29/28
f 38/57/52 36/56/51 35/29/28
f 38/57/52 37/34/33 39/36/35
f 40/58/53 39/36/35 41/5/5
f 42/59/54 41/5/5 43/11/10
f 46/61/56 44/60/55 43/11/10
f 48/62/57 46/61/56 45/15/14
f 48/62/57 47/19/18 49/24/23
f 50/63/19 49/24/23 51/32/31
f 52/64/58 51/32/31 53/35/34
f 54/65/59 53/35/34 55/2/2
f 56/66/60 55/2/2 57/67/8
f 60/69/62 58/100/61 57/8/8
f 60/69/62 59/13/12 61/17/16
f 62/70/20 61/17/16 63/38/37
f 33/55/21 64/71/63 63/38/37
f 4/30/29 35/29/28 34/72/64
