# Blender v2.77 (sub 0) OBJ File: 'plate.blend'
# www.blender.org
mtllib plate.mtl
o Cube_Cube.001
v -12.099106 -0.481513 12.380255
v -12.380255 -0.481513 12.099106
v -12.099106 -0.762662 12.099106
v -12.099106 0.481513 12.380255
v -12.099106 0.762662 12.099106
v -12.380255 0.481513 12.099106
v -12.099106 -0.481513 -12.380255
v -12.099106 -0.762662 -12.099106
v -12.380255 -0.481513 -12.099106
v -12.099106 0.762662 -12.099106
v -12.099106 0.481513 -12.380255
v -12.380255 0.481513 -12.099106
v 12.099106 -0.481513 12.380255
v 12.099106 -0.762662 12.099106
v 12.380255 -0.481513 12.099106
v 12.099106 0.762662 12.099106
v 12.099106 0.481513 12.380255
v 12.380255 0.481513 12.099106
v 12.380255 -0.481513 -12.099106
v 12.099106 -0.762662 -12.099106
v 12.099106 -0.481513 -12.380255
v 12.099106 0.762662 -12.099106
v 12.380255 0.481513 -12.099106
v 12.099106 0.481513 -12.380255
vt 0.0120 0.1340
vt 0.8699 0.1340
vt 0.8699 0.9919
vt 0.0120 0.9919
vt 0.9886 0.0686
vt 0.0114 0.0686
vt 0.0114 0.0297
vt 0.9886 0.0297
vt 0.0120 0.1340
vt 0.8699 0.1340
vt 0.8699 0.9919
vt 0.0120 0.9919
vt 0.9886 0.0686
vt 0.0114 0.0686
vt 0.0114 0.0297
vt 0.9886 0.0297
vt 0.0114 0.0686
vt 0.9886 0.0686
vt 0.9886 0.0297
vt 0.0114 0.0297
vt -0.0000 0.0297
vt 0.0114 0.0184
vt 0.0114 0.0800
vt -0.0000 0.0686
vt 0.0114 0.0184
vt -0.0000 0.0297
vt 0.0114 0.0800
vt -0.0000 0.0686
vt 0.9886 0.0184
vt 1.0000 0.0297
vt 0.9886 0.0800
vt 1.0000 0.0686
vt 0.0000 0.0297
vt -0.0114 0.0184
vt -0.0114 0.0297
vt 0.9886 0.0800
vt 1.0000 0.0686
vt 0.9886 0.0800
vt 0.9886 0.0686
vt 0.0114 0.0686
vt 0.9886 0.0184
vt 0.0114 0.0297
vt 0.9886 0.0297
vt 0.0000 0.0686
vt -0.0114 0.0686
vt 0.9886 0.0184
vt 0.0114 0.0800
vt 0.0114 0.0184
vn 0.0000 -1.0000 0.0000
vn 1.0000 0.0000 0.0000
vn 0.0000 1.0000 0.0000
vn 0.0000 0.0000 1.0000
vn 0.0000 0.0000 -1.0000
vn -0.5774 -0.5774 0.5773
vn -0.5774 0.5774 0.5773
vn -0.5774 -0.5774 -0.5773
vn -0.5774 0.5774 -0.5773
vn 0.5774 -0.5774 0.5773
vn 0.5774 0.5774 0.5773
vn 0.5774 -0.5774 -0.5773
vn 0.5774 0.5774 -0.5773
vn -0.7071 0.0000 0.7071
vn -0.7071 0.7071 0.0000
vn -0.7071 0.0000 -0.7071
vn -0.7071 -0.7071 0.0000
vn 0.0000 0.7071 -0.7071
vn 0.7071 0.0000 -0.7071
vn 0.0000 -0.7071 -0.7071
vn 0.7071 0.7071 0.0000
vn 0.7071 0.0000 0.7071
vn 0.7071 -0.7071 0.0000
vn 0.0000 0.7071 0.7071
vn 0.0000 -0.7071 0.7071
vn -1.0000 0.0000 0.0000
usemtl Material.001
s off
f 3/1/1 8/2/1 20/3/1 14/4/1
f 23/5/2 18/6/2 15/7/2 19/8/2
f 16/9/3 22/10/3 10/11/3 5/12/3
f 17/13/4 4/14/4 1/15/4 13/16/4
f 11/17/5 24/18/5 21/19/5 7/20/5
f 1/15/6 2/21/6 3/22/6
f 4/14/7 5/23/7 6/24/7
f 7/20/8 8/25/8 9/26/8
f 10/27/9 11/17/9 12/28/9
f 13/16/10 14/29/10 15/30/10
f 16/31/11 17/13/11 18/32/11
f 19/33/12 20/34/12 21/35/12
f 22/36/13 23/37/13 24/18/13
f 1/15/14 4/14/14 6/24/14 2/21/14
f 5/23/15 10/38/15 12/39/15 6/40/15
f 11/17/16 7/20/16 9/26/16 12/28/16
f 8/41/17 3/22/17 2/42/17 9/43/17
f 10/27/18 22/36/18 24/18/18 11/17/18
f 23/44/19 19/33/19 21/35/19 24/45/19
f 20/46/20 8/25/20 7/20/20 21/19/20
f 22/36/21 16/47/21 18/6/21 23/5/21
f 17/13/22 13/16/22 15/30/22 18/32/22
f 14/48/23 20/46/23 19/8/23 15/7/23
f 16/31/24 5/23/24 4/14/24 17/13/24
f 3/22/25 14/29/25 13/16/25 1/15/25
f 6/40/26 12/39/26 9/43/26 2/42/26
